<?xml version="1.0" standalone="no"?>
<!DOCTYPE svg PUBLIC "-//W3C//DTD SVG 20010904//EN"
 "http://www.w3.org/TR/2001/REC-SVG-20010904/DTD/svg10.dtd">
<svg version="1.0" xmlns="http://www.w3.org/2000/svg"
 width="126.000000pt" height="71.000000pt" viewBox="0 0 126.000000 71.000000"
 preserveAspectRatio="xMidYMid meet">

<g transform="translate(0.000000,71.000000) scale(0.100000,-0.100000)"
fill="#000000" stroke="none">
<path d="M186 651 c-3 -4 -1 -23 4 -42 6 -19 10 -36 10 -38 0 -2 -11 0 -25 3
-22 6 -24 4 -16 -17 8 -21 3 -28 -37 -58 -60 -44 -97 -114 -87 -165 21 -112
231 -221 466 -240 64 -6 82 -11 100 -30 28 -30 31 -30 66 0 21 17 46 25 102
30 232 23 436 130 456 240 10 50 -27 122 -82 161 -36 26 -41 34 -37 58 6 30 2
32 -27 16 -19 -9 -19 -9 -10 10 13 24 15 81 2 81 -5 0 -14 -6 -20 -14 -6 -8
-33 -23 -60 -35 -47 -20 -51 -20 -122 -4 -103 23 -376 23 -478 0 l-75 -17 -63
35 c-34 19 -65 31 -67 26z m28 -216 c-8 -21 -14 -49 -11 -62 4 -19 1 -22 -14
-18 -36 12 -13 -46 36 -87 38 -33 127 -60 197 -61 62 0 66 -1 57 -18 -9 -17
-7 -18 16 -9 22 8 27 6 41 -21 8 -17 13 -33 11 -36 -7 -6 -123 15 -182 34
-160 51 -245 142 -221 237 8 34 66 100 78 88 5 -5 2 -25 -8 -47z m870 14 c84
-99 14 -220 -164 -285 -46 -16 -192 -45 -198 -39 -9 9 32 55 49 55 11 0 16 5
13 13 -3 10 11 13 59 14 85 1 159 27 208 72 39 38 55 86 24 75 -12 -5 -15 2
-15 32 0 22 -7 51 -14 67 -21 39 4 37 38 -4z m-761 -25 c12 -4 13 -11 4 -34
-13 -35 3 -72 40 -89 35 -16 105 -13 132 5 14 10 26 13 32 7 27 -27 -79 -53
-155 -39 -52 10 -96 58 -96 105 0 49 9 58 43 45z m661 -10 c18 -47 -9 -101
-66 -130 -40 -20 -128 -20 -169 1 -28 15 -30 19 -16 27 12 6 24 4 39 -6 33
-23 109 -21 141 4 32 26 40 50 28 83 -7 18 -7 27 2 31 23 9 35 6 41 -10z
m-520 -81 c-22 -16 -26 -16 -49 1 -11 8 -16 19 -12 30 6 15 9 15 42 -1 33 -16
35 -18 19 -30z m406 22 c0 -20 -36 -37 -60 -30 -28 9 -25 19 13 37 35 17 47
15 47 -7z m-184 -96 c19 -38 18 -73 -5 -118 -33 -65 -46 -68 -76 -22 -32 47
-42 108 -23 134 11 15 13 11 13 -31 0 -31 7 -58 20 -77 l20 -30 3 98 c2 87 5
97 18 86 8 -7 22 -25 30 -40z"/>
<path d="M1120 530 c0 -5 5 -10 10 -10 6 0 10 5 10 10 0 6 -4 10 -10 10 -5 0
-10 -4 -10 -10z"/>
</g>
</svg>
