<?xml version="1.0" standalone="no"?>
<!DOCTYPE svg PUBLIC "-//W3C//DTD SVG 20010904//EN"
 "http://www.w3.org/TR/2001/REC-SVG-20010904/DTD/svg10.dtd">
<svg version="1.0" xmlns="http://www.w3.org/2000/svg"
 width="800.000000pt" height="749.000000pt" viewBox="0 0 800.000000 749.000000"
 preserveAspectRatio="xMidYMid meet">

<g transform="translate(0.000000,749.000000) scale(0.100000,-0.100000)"
fill="#000000" stroke="none">
<path d="M3755 7295 c-11 -2 -78 -9 -150 -15 -206 -19 -370 -47 -525 -90 -198
-54 -467 -147 -546 -188 -11 -5 -72 -35 -136 -66 -224 -107 -483 -274 -680
-436 -176 -146 -248 -214 -378 -360 -187 -209 -265 -312 -404 -535 -66 -105
-236 -427 -236 -447 0 -5 -9 -30 -21 -56 -20 -46 -24 -57 -49 -117 -24 -60
-69 -201 -76 -240 -3 -22 -10 -44 -14 -50 -4 -5 -13 -35 -20 -65 -7 -30 -16
-73 -21 -95 -28 -123 -42 -199 -50 -280 -5 -49 -14 -126 -21 -170 -14 -101
-14 -603 1 -687 6 -35 15 -101 21 -148 14 -117 44 -271 75 -385 9 -33 20 -78
26 -100 16 -63 90 -279 100 -290 5 -5 9 -15 9 -23 0 -7 9 -34 21 -60 11 -26
24 -56 28 -67 16 -37 141 -289 166 -334 13 -23 41 -68 61 -100 85 -130 177
-266 183 -271 3 -3 30 -36 59 -75 111 -145 346 -384 522 -531 102 -84 246
-194 255 -194 4 0 24 -13 44 -28 74 -59 424 -249 551 -301 30 -12 64 -26 75
-31 79 -36 275 -103 335 -115 19 -4 40 -11 45 -15 6 -4 26 -11 45 -15 19 -4
49 -11 65 -15 262 -76 796 -120 1110 -90 432 40 653 91 1050 240 137 51 371
168 497 247 21 12 40 23 44 23 14 0 236 158 345 246 290 232 548 507 726 772
139 206 186 289 323 573 5 8 22 51 40 95 17 43 35 86 39 94 5 9 12 31 16 50 4
19 11 40 15 45 4 6 11 26 15 45 4 19 11 41 15 50 5 8 16 44 25 80 10 36 21 76
26 90 21 60 62 283 89 480 16 122 22 461 11 655 -10 177 -25 297 -55 445 -8
41 -20 100 -26 130 -6 30 -15 66 -19 80 -5 14 -17 52 -27 85 -27 91 -74 237
-84 260 -8 17 -24 57 -79 190 -37 88 -147 298 -205 390 -11 17 -29 46 -41 65
-211 340 -514 674 -829 915 -129 99 -306 218 -402 271 -85 46 -298 153 -350
176 -22 9 -55 23 -74 31 -19 8 -82 32 -140 52 -58 21 -114 41 -125 45 -11 5
-54 18 -95 30 -41 11 -88 25 -105 30 -16 5 -48 12 -70 15 -22 4 -49 10 -60 15
-22 10 -106 25 -230 40 -44 6 -116 15 -160 21 -75 11 -527 21 -570 14z m640
-140 c544 -75 1010 -251 1455 -546 387 -258 698 -569 961 -963 317 -475 506
-1014 559 -1591 13 -140 13 -446 0 -595 -58 -668 -301 -1280 -726 -1830 -110
-143 -392 -427 -539 -544 -505 -402 -1074 -643 -1730 -732 -182 -25 -655 -25
-840 -1 -639 85 -1197 319 -1705 713 -129 100 -412 376 -517 504 -414 506
-667 1089 -758 1745 -22 158 -31 550 -16 726 59 683 316 1327 746 1864 169
211 453 478 680 641 248 178 577 348 867 449 207 73 515 142 728 164 58 6 119
13 135 15 80 11 587 -3 700 -19z"/>
<path d="M3640 7059 c-503 -57 -912 -186 -1320 -417 -510 -288 -964 -742
-1252 -1252 -286 -506 -428 -1050 -428 -1635 0 -586 142 -1129 428 -1635 92
-163 168 -274 300 -438 463 -578 1105 -985 1823 -1156 489 -116 1039 -116
1528 0 596 142 1149 452 1580 884 485 486 812 1114 925 1775 61 358 61 783 0
1139 -166 965 -780 1836 -1634 2318 -403 228 -819 361 -1293 413 -151 16 -527
19 -657 4z m272 -475 c20 -142 39 -284 43 -315 l7 -56 -71 -10 c-39 -5 -73 -8
-75 -6 -2 2 -14 82 -27 178 -13 96 -26 175 -29 175 -3 0 -30 -50 -60 -110 -56
-114 -56 -114 -127 -123 -30 -3 -39 3 -115 90 -46 52 -84 88 -86 81 -1 -7 8
-88 21 -181 l23 -168 -20 -5 c-12 -2 -45 -6 -75 -7 l-54 -2 -43 310 c-46 326
-46 325 2 325 12 0 34 3 50 6 27 5 39 -5 163 -142 l134 -147 89 176 c87 175
88 176 125 182 21 4 45 8 53 9 8 2 20 3 25 2 6 -2 27 -119 47 -262z m845 141
c156 -77 216 -225 162 -400 -27 -89 -105 -172 -192 -204 -179 -65 -386 25
-458 199 -17 42 -18 159 -1 217 16 54 67 129 114 166 98 78 243 87 375 22z
m-2122 -465 c60 -121 113 -220 117 -220 5 0 61 27 126 59 l118 59 31 -62 31
-62 -184 -92 c-101 -51 -189 -92 -194 -92 -9 0 -295 559 -288 565 6 5 123 64
128 65 3 0 55 -99 115 -220z m3260 -90 l39 -40 -30 -196 c-30 -193 -30 -195
-10 -190 12 2 99 21 194 42 l173 37 45 -44 44 -44 -132 -140 c-72 -77 -171
-182 -220 -233 l-89 -92 -54 51 -54 51 124 132 c69 72 121 132 116 134 -5 2
-59 -9 -121 -22 -119 -27 -128 -27 -169 18 -26 28 -26 26 3 206 l14 84 -41
-44 c-22 -25 -81 -87 -130 -138 l-90 -94 -53 53 -52 52 216 228 c118 126 221
229 227 229 6 0 29 -18 50 -40z m-3743 -170 c155 -163 189 -215 196 -295 6
-68 -28 -146 -88 -203 -59 -58 -114 -82 -186 -82 -99 0 -139 27 -312 209
l-152 159 56 52 55 52 111 -117 c61 -64 119 -127 130 -140 29 -37 82 -65 123
-65 29 0 44 7 70 33 42 42 52 77 34 120 -7 17 -74 97 -149 175 -74 79 -136
148 -138 152 -3 8 88 99 100 100 3 0 71 -68 150 -150z m-604 -653 c54 -25 106
-85 122 -143 17 -60 1 -137 -45 -219 l-35 -63 23 -15 c12 -8 46 -26 75 -41 28
-14 52 -29 52 -32 0 -15 -64 -124 -73 -124 -8 0 -391 207 -515 278 l-43 24 52
97 c103 192 140 234 228 257 53 15 99 9 159 -19z m5113 -78 c17 -34 27 -65 22
-69 -4 -4 -103 -58 -219 -119 l-212 -112 64 -119 c35 -65 64 -121 64 -124 0
-7 -121 -69 -125 -64 -16 18 -196 371 -191 375 12 12 541 292 553 292 7 1 27
-27 44 -60z m-4440 -403 c204 -66 236 -69 829 -74 l535 -3 29 30 30 31 241 0
241 0 30 -31 29 -30 625 3 c601 4 629 5 723 26 55 12 139 35 188 52 107 36
113 36 139 10 28 -28 25 -58 -15 -136 -22 -45 -32 -77 -28 -92 7 -29 -32 -88
-92 -138 -25 -21 -45 -46 -45 -56 0 -27 -77 -106 -134 -138 -36 -21 -53 -38
-60 -62 -6 -18 -25 -41 -41 -53 -28 -18 -30 -23 -21 -53 7 -26 19 -37 57 -53
46 -20 49 -24 132 -182 l85 -161 -69 -138 -69 -138 -29 15 -29 15 14 -53 c19
-73 17 -138 -6 -208 -108 -321 -591 -555 -1279 -619 -90 -9 -117 -15 -127 -29
-7 -9 -42 -43 -78 -75 l-65 -57 -79 75 -78 75 -115 11 c-711 66 -1210 320
-1284 654 -14 61 -14 84 -5 137 6 35 16 71 21 81 13 24 -1 23 -47 -2 -20 -12
-37 -20 -39 -18 -9 11 -125 247 -125 254 0 5 43 83 94 174 86 153 96 167 138
188 50 25 86 81 58 90 -26 9 -60 51 -66 81 -5 23 -14 33 -39 41 -46 15 -124
87 -144 131 -10 21 -40 58 -68 83 -59 53 -89 107 -74 134 7 14 3 29 -19 64
-36 58 -50 106 -38 138 18 50 34 50 169 6z m-782 -1643 c12 -76 21 -143 21
-150 0 -12 -86 -30 -96 -21 -2 3 -9 34 -14 69 -18 117 -14 111 -68 103 -26 -3
-50 -8 -53 -10 -3 -2 -1 -38 6 -81 7 -43 10 -81 6 -84 -3 -4 -25 -9 -48 -13
-47 -7 -48 -7 -58 85 -10 80 -9 80 -93 67 -39 -6 -74 -9 -77 -6 -3 3 -8 28
-12 55 l-5 50 118 18 c66 10 166 26 224 35 58 10 110 18 116 19 7 1 20 -52 33
-136z m5251 120 c0 -10 -3 -35 -6 -56 -6 -31 -13 -40 -40 -52 -69 -29 -99
-141 -53 -199 59 -76 194 -75 232 2 34 66 28 124 -18 172 -24 25 -25 29 -14
78 6 29 14 52 19 52 22 0 96 -70 117 -110 21 -39 24 -56 21 -126 -3 -69 -7
-88 -33 -130 -19 -30 -49 -60 -79 -79 -43 -26 -59 -30 -121 -30 -60 0 -81 5
-131 30 -48 25 -65 41 -91 85 -27 45 -33 64 -33 113 0 33 5 78 12 101 17 55
100 139 153 153 58 16 65 15 65 -4z m-5179 -450 c31 -82 40 -74 -150 -138 -94
-31 -171 -60 -171 -64 0 -4 14 -47 30 -96 17 -49 27 -92 23 -96 -16 -14 -85
-31 -92 -23 -12 13 -102 286 -97 291 5 5 427 152 439 152 4 1 12 -11 18 -26z
m5086 -200 c114 -42 211 -79 216 -83 10 -8 -24 -100 -38 -100 -5 0 -106 35
-223 77 -206 76 -213 79 -208 103 8 41 25 80 35 80 5 0 103 -34 218 -77z
m-256 -183 l40 -21 -36 -65 c-20 -36 -35 -67 -33 -69 1 -2 73 -43 158 -90 85
-48 156 -88 158 -90 4 -3 -49 -95 -55 -95 -3 0 -74 38 -158 85 -83 47 -156 85
-162 85 -5 0 -18 -17 -27 -37 -9 -21 -25 -48 -34 -61 l-18 -23 -42 23 c-23 13
-42 26 -42 31 0 5 126 235 187 340 7 11 21 8 64 -13z m-4668 -98 c83 -44 136
-137 137 -237 0 -113 -79 -206 -201 -235 -152 -37 -298 90 -299 258 0 76 16
117 64 165 86 87 195 104 299 49z m4516 -493 c94 -83 171 -155 171 -160 0 -5
-12 -22 -27 -39 l-28 -31 -149 16 c-82 9 -158 15 -169 13 -16 -2 1 -22 81 -91
l102 -89 -32 -39 c-17 -21 -35 -39 -40 -39 -8 0 -176 145 -310 267 l-46 42 31
35 32 36 149 -16 c82 -8 158 -14 168 -12 14 2 -7 26 -82 91 l-100 88 32 39
c18 22 36 40 39 40 4 0 83 -68 178 -151z m-4117 -28 c103 -108 121 -153 94
-226 -29 -74 -110 -124 -179 -111 l-32 6 -24 -85 c-13 -47 -26 -85 -29 -85
-13 0 -82 75 -82 90 0 8 9 44 20 78 24 76 24 71 0 101 l-20 23 -51 -46 c-28
-25 -54 -46 -58 -46 -4 0 -23 16 -42 36 l-34 36 165 158 c91 88 170 159 176
160 7 0 50 -40 96 -89z m345 -311 l42 -31 -145 -189 -145 -190 -43 33 c-25 18
-41 37 -37 43 14 25 276 364 281 364 4 0 25 -14 47 -30z m3316 -142 c106 -66
195 -124 200 -127 4 -4 -14 -22 -40 -40 l-46 -33 -39 22 -39 22 -73 -53 c-71
-51 -73 -54 -65 -83 5 -17 9 -38 9 -46 0 -14 -69 -70 -87 -70 -7 0 -122 427
-126 472 -1 9 16 30 38 46 31 24 44 28 58 20 10 -5 104 -64 210 -130z m-3028
-50 c54 -28 115 -68 136 -89 111 -111 70 -308 -79 -376 -80 -37 -138 -29 -270
38 -57 29 -106 57 -108 61 -6 10 204 418 215 418 5 0 52 -23 106 -52z m2385
-265 c40 -87 76 -162 80 -166 4 -5 38 7 76 26 109 54 110 54 134 7 11 -22 19
-44 16 -49 -11 -17 -277 -134 -285 -125 -5 5 -52 101 -104 214 l-96 205 42 22
c23 12 47 22 53 23 6 0 44 -71 84 -157z m-284 0 l6 -40 -72 -18 c-43 -11 -70
-22 -67 -29 20 -50 87 -340 80 -346 -9 -8 -96 -31 -100 -26 -2 2 -23 81 -48
176 -24 94 -45 174 -47 176 -2 2 -28 -3 -58 -11 -83 -22 -86 -21 -99 31 -7 26
-10 48 -9 50 2 1 91 25 198 52 143 36 197 46 202 37 4 -7 10 -30 14 -52z
m-1501 21 c20 -3 39 -12 41 -18 5 -13 63 -500 60 -503 -1 -1 -27 5 -58 14 -55
16 -56 16 -63 59 -6 43 -8 44 -58 58 -131 37 -121 37 -146 0 -13 -19 -29 -34
-35 -34 -28 1 -101 29 -98 39 6 28 296 402 308 397 7 -3 29 -8 49 -12z m916
-289 c50 -110 97 -215 104 -232 l14 -33 -63 0 -63 0 -16 41 c-16 41 -17 42
-54 35 -21 -3 -61 -6 -89 -6 -51 0 -52 -1 -67 -39 -10 -24 -24 -41 -39 -45
-22 -6 -98 -9 -98 -3 0 2 146 424 165 475 3 9 22 12 60 10 l56 -3 90 -200z"/>
<path d="M4548 6620 c-85 -26 -130 -84 -136 -175 -5 -82 20 -134 84 -171 99
-58 216 -27 263 68 27 57 28 140 2 188 -34 64 -145 111 -213 90z"/>
<path d="M1365 5189 c-26 -31 -69 -109 -63 -113 19 -14 160 -86 168 -86 6 0
25 29 41 65 27 57 29 69 20 98 -13 39 -56 67 -104 67 -27 0 -41 -7 -62 -31z"/>
<path d="M2110 4808 c14 -48 56 -105 102 -138 l41 -30 -47 0 -47 0 21 -30 c31
-44 84 -81 143 -101 l52 -18 -40 -17 -40 -16 48 -44 c27 -24 71 -52 97 -61 47
-17 49 -19 52 -58 3 -38 5 -40 40 -43 50 -4 55 -25 26 -108 -22 -64 -25 -68
-70 -87 -46 -19 -50 -25 -133 -172 l-86 -153 43 -87 c31 -62 47 -85 58 -81 8
3 65 25 125 50 61 25 113 46 118 46 4 0 -12 -24 -36 -53 -74 -91 -92 -138 -92
-242 0 -112 25 -171 110 -263 195 -210 602 -359 1103 -403 l144 -12 55 -59
c31 -32 60 -58 64 -58 4 0 33 26 64 59 l57 58 97 7 c607 43 1099 251 1232 523
30 60 34 77 34 148 0 91 -26 157 -90 233 -20 23 -31 42 -24 42 6 0 54 -18 105
-40 52 -22 96 -40 98 -40 8 0 96 178 96 193 0 8 -32 75 -71 148 -68 128 -73
135 -118 155 -43 19 -50 27 -70 82 -31 83 -27 106 21 110 30 3 39 8 44 27 3
13 3 32 0 42 -5 16 3 22 47 36 32 10 71 33 95 55 45 42 53 62 23 62 -10 0 -24
7 -31 15 -10 12 -9 15 6 15 35 1 102 38 143 80 23 23 41 46 41 51 0 4 -19 9
-42 11 l-42 3 37 25 c55 37 124 147 104 166 -3 3 -40 -6 -82 -21 -94 -32 -230
-60 -357 -74 -57 -7 -330 -11 -656 -11 l-558 0 -29 30 -29 30 -221 0 -221 0
-29 -30 -29 -30 -460 0 c-585 0 -746 14 -946 84 -96 34 -101 34 -90 -6z m325
-128 c144 -34 243 -40 681 -40 237 0 433 -2 436 -5 2 -3 -2 -45 -10 -95 l-15
-90 -127 0 -127 0 5 30 4 31 -98 -3 -98 -3 -18 -60 c-10 -33 -18 -63 -18 -67
0 -4 73 -5 163 -1 139 5 160 4 151 -8 -6 -8 -31 -42 -57 -75 l-46 -62 -135 -7
-134 -7 -17 -45 c-9 -24 -15 -46 -13 -48 2 -2 33 0 68 5 35 5 66 7 68 5 5 -5
-37 -117 -50 -133 -9 -10 -20 -7 -57 14 -25 15 -62 40 -81 56 -19 15 -38 28
-43 28 -5 0 -7 -32 -5 -70 l3 -71 -40 -10 c-112 -29 -227 -64 -307 -94 -48
-18 -88 -29 -88 -24 0 5 18 45 40 88 37 75 42 80 88 95 l49 17 37 97 c20 53
36 102 36 108 0 6 -11 37 -25 68 -14 31 -25 59 -25 61 0 3 14 5 30 5 45 0 39
28 -7 35 -100 16 -156 44 -91 46 18 1 44 4 58 8 21 6 14 10 -42 25 -64 17
-158 67 -158 83 0 5 33 7 72 6 l73 -3 -41 14 c-60 19 -159 75 -186 104 -21 23
-21 25 -3 18 11 -4 56 -16 100 -26z m1628 -7 c13 -21 81 -139 152 -263 70
-124 133 -228 139 -232 6 -4 28 -8 48 -8 36 0 37 -1 58 -66 12 -36 20 -67 18
-69 -2 -3 -82 1 -177 7 l-173 12 -40 73 -40 73 -185 -2 -186 -3 -36 -65 -37
-65 -164 -17 c-91 -10 -175 -17 -186 -15 l-21 2 19 63 c19 59 21 62 51 63 62
1 41 -27 383 512 l24 37 165 0 165 0 23 -37z m1532 1 c-39 -33 -117 -73 -185
-96 l-55 -19 83 5 c45 3 82 2 82 -2 0 -21 -150 -92 -195 -92 -8 0 -15 -4 -15
-9 0 -5 24 -12 53 -15 l52 -8 -28 -15 c-16 -8 -53 -17 -82 -20 -53 -6 -53 -6
-34 -26 10 -12 19 -26 19 -33 0 -20 -17 -26 -24 -8 -9 24 -61 15 -60 -11 1
-11 37 -98 79 -194 65 -145 76 -179 69 -200 -15 -43 -62 -48 -190 -19 -119 26
-112 19 -98 95 4 18 3 48 0 68 l-7 35 -47 -38 c-26 -22 -70 -52 -97 -67 l-50
-27 -130 32 c-72 18 -149 41 -171 52 -75 35 -85 53 -136 256 l-46 187 -35 3
c-33 3 -36 6 -46 50 -7 26 -14 55 -17 65 -5 16 7 17 202 15 l208 -3 13 -44 c7
-24 15 -52 18 -62 5 -15 1 -19 -19 -19 -14 0 -26 -3 -26 -7 0 -15 98 -334 103
-340 6 -5 191 -52 209 -53 6 0 -49 164 -122 368 -10 26 -17 32 -41 32 -26 0
-30 5 -47 63 l-20 62 312 6 c312 6 394 14 501 51 51 18 58 12 20 -18z m-99
-769 c21 -32 12 -67 -22 -85 -37 -20 -78 3 -82 47 -6 61 71 89 104 38z m-2538
-234 c11 -6 8 -19 -16 -62 -37 -66 -56 -153 -46 -214 l6 -46 -37 15 c-21 9
-39 16 -41 16 -10 0 -2 -72 12 -105 21 -52 107 -140 174 -179 144 -84 291
-120 471 -115 65 2 119 3 119 1 0 -1 -9 -21 -20 -42 -11 -22 -17 -40 -14 -40
4 0 31 8 60 17 30 9 55 15 57 12 16 -19 78 -142 74 -145 -8 -8 -175 16 -296
43 -349 76 -594 221 -684 403 -27 54 -32 76 -32 135 0 94 33 163 117 250 65
66 73 71 96 56z m2101 -50 c78 -78 115 -154 119 -248 4 -64 1 -80 -26 -137
-101 -216 -417 -377 -865 -441 -65 -10 -120 -15 -123 -13 -2 3 11 31 31 63 19
32 37 66 40 76 6 18 8 18 58 -1 74 -28 79 -26 52 23 l-24 42 152 0 c178 0 243
14 382 80 146 71 234 166 251 273 7 47 7 48 -43 27 -19 -8 -36 -15 -37 -15 0
0 -1 39 -1 88 0 79 -3 94 -33 155 -52 106 -24 119 67 28z m-1846 -159 c-37
-73 -28 -129 30 -190 98 -103 289 -114 406 -25 l33 26 41 -20 40 -19 -49 -31
c-82 -52 -137 -67 -249 -67 -111 1 -174 19 -257 74 -111 74 -155 229 -93 324
l17 25 52 -26 52 -25 -23 -46z m1603 61 c80 -168 -51 -345 -284 -385 -115 -19
-263 15 -342 80 l-25 20 38 18 c31 15 41 16 55 6 81 -59 125 -74 214 -74 107
0 214 56 244 128 20 48 17 113 -7 153 -11 18 -19 35 -17 36 7 7 93 55 99 55 4
0 15 -17 25 -37z m-1315 -154 c77 -38 80 -41 64 -59 -39 -43 -145 -28 -165 25
-9 23 1 75 15 75 3 0 42 -18 86 -41z m1029 -8 c0 -33 -34 -66 -76 -75 -34 -8
-104 15 -104 33 0 6 35 28 78 50 83 42 102 41 102 -8z m-503 -151 c18 -19 47
-62 65 -95 28 -52 33 -70 33 -131 0 -60 -5 -80 -33 -135 -18 -35 -54 -91 -79
-123 l-47 -59 -36 42 c-88 102 -139 230 -125 314 8 47 36 110 65 147 19 25 19
24 0 -32 -11 -32 -20 -77 -20 -102 0 -58 32 -158 72 -226 l33 -55 3 259 c3
288 -3 272 69 196z"/>
<path d="M3818 4480 c-32 -54 -58 -101 -58 -104 0 -3 52 -6 116 -6 l116 0 -52
98 c-29 53 -55 100 -59 104 -3 4 -32 -38 -63 -92z"/>
<path d="M5447 3910 c17 -7 22 -16 20 -40 -2 -31 -12 -39 -20 -17 -4 10 -6 10
-6 0 -2 -28 -21 -11 -21 19 0 24 -3 29 -12 20 -18 -18 6 -62 35 -62 29 0 47
18 47 47 0 22 -26 44 -52 42 -7 0 -3 -4 9 -9z"/>
<path d="M1505 2316 c-48 -21 -77 -60 -82 -109 -18 -153 176 -217 257 -85 25
41 25 82 2 128 -34 68 -109 96 -177 66z"/>
<path d="M1935 1795 l-50 -44 47 -46 c53 -51 78 -56 114 -19 33 32 26 65 -24
117 l-37 37 -50 -45z"/>
<path d="M5553 1414 c3 -10 13 -46 23 -79 9 -33 18 -62 20 -64 4 -4 94 61 94
68 0 3 -17 16 -38 28 -20 12 -52 32 -71 44 -31 21 -33 21 -28 3z"/>
<path d="M2642 1287 c-11 -13 -112 -214 -112 -222 0 -12 103 -55 134 -55 70 0
136 89 122 165 -10 53 -121 140 -144 112z"/>
<path d="M3208 936 c-27 -36 -48 -68 -48 -70 0 -2 13 -6 29 -9 16 -3 40 -9 55
-13 25 -6 26 -5 25 37 0 24 -3 61 -7 82 l-7 39 -47 -66z"/>
<path d="M4052 832 c-12 -38 -22 -71 -22 -75 0 -10 83 -8 99 2 12 8 9 20 -15
75 -16 36 -31 66 -34 66 -3 0 -16 -31 -28 -68z"/>
</g>
</svg>
